# xmcd CD database file
#
# Track frame offsets:
#	150
#	34632
#	75665
#	125035
#	161707
#	184627
#	210502
#	250732
#	266332
#
# Disc length: 4028 seconds
#
# Revision: 0
# Processed by: cddbd v1.5.1PL0 Copyright (c) Steve Scherf et al.
# Submitted via: CDex 1.51
#
DISCID=700fba09
DTITLE=Trio Acoustic - Gypsy Eyes
DYEAR=2003
DGENRE=Jazz
TTITLE0=Gypsy Eyes
TTITLE1=Lonely Moments
TTITLE2=Romano Vaker
TTITLE3=Angel Voice
TTITLE4=Dzselem Dzselem
TTITLE5=When ths Dreams Come True
TTITLE6=Mamole
TTITLE7=Ai No Uta
TTITLE8=Kalo
EXTD=YEAR: 2003
EXTT0=
EXTT1=
EXTT2=
EXTT3=
EXTT4=
EXTT5=
EXTT6=
EXTT7=
EXTT8=
PLAYORDER=
